<?xml version="1.0" encoding="UTF-8"?>
<svg xmlns="http://www.w3.org/2000/svg" xmlns:xlink="http://www.w3.org/1999/xlink" width="206pt" height="200pt" viewBox="0 0 206 200" version="1.1">
<g id="surface1">
<path style=" stroke:none;fill-rule:nonzero;fill:rgb(0%,0%,0%);fill-opacity:1;" d="M 101 24.675781 C 97.398438 25.519531 93.742188 26.9375 92.800781 27.847656 C 89.539062 31.011719 79.960938 49.199219 77.027344 57.800781 C 65.53125 91.5 70.535156 130.316406 90.105469 159.199219 C 93.792969 164.640625 94.101562 164.847656 101 166.5 C 104.898438 167.433594 108.304688 167.996094 108.550781 167.75 C 108.792969 167.507812 107.460938 165.5 105.664062 163.398438 C 78.589844 131.746094 73.40625 84.5 92.972656 47.699219 C 95.074219 43.75 99.550781 36.800781 102.898438 32.300781 C 106.246094 27.800781 109 23.828125 109 23.5 C 109 22.816406 108.800781 22.847656 101 24.675781 "/>
<path style=" stroke:none;fill-rule:nonzero;fill:rgb(0%,0%,0%);fill-opacity:1;" d="M 112.394531 28.199219 C 94.890625 46.753906 84.828125 74.601562 86.308594 100.398438 C 87.675781 124.199219 96.796875 145.867188 112.652344 163 L 118.300781 169.101562 L 124.398438 168.398438 C 127.800781 168.011719 130.65625 167.566406 130.851562 167.398438 C 131.042969 167.234375 128 164.09375 124.101562 160.429688 C 111.71875 148.792969 102.636719 133.300781 98.992188 117.601562 C 95.304688 101.710938 95.488281 87.800781 99.601562 71.699219 C 103.175781 57.699219 112.757812 42.117188 124.601562 31.042969 C 132.800781 23.371094 132.699219 23 122.398438 23 C 117.496094 23 117.109375 23.199219 112.394531 28.199219 "/>
<path style=" stroke:none;fill-rule:nonzero;fill:rgb(0%,0%,0%);fill-opacity:1;" d="M 133 29.578125 C 128.601562 33.074219 118 43.691406 118 44.601562 C 118 44.878906 117.1875 46.300781 116.171875 47.800781 C 110.550781 56.101562 108.9375 59.195312 106.683594 66 C 105.324219 70.101562 103.882812 75.222656 103.5 77.300781 L 102.800781 81.101562 L 106.601562 78.5 C 108.699219 77.0625 111.382812 75.652344 112.601562 75.351562 C 113.84375 75.039062 115.054688 73.800781 115.386719 72.5 C 116.480469 68.195312 122.007812 57.5 125.878906 52.199219 C 130.914062 45.300781 138.425781 38.3125 144.898438 34.503906 C 147.699219 32.855469 150.011719 30.960938 150.019531 30.300781 C 150.042969 29.140625 142 25.964844 139.101562 25.988281 C 138.210938 25.996094 135.5 27.589844 133 29.578125 "/>
<path style=" stroke:none;fill-rule:nonzero;fill:rgb(0%,0%,0%);fill-opacity:1;" d="M 77 35.527344 C 74.5 37.457031 71.121094 39.964844 69.398438 41.175781 C 66.105469 43.484375 65.441406 44.699219 61.582031 55.5 C 55.917969 71.359375 54.105469 99.300781 57.5 118.5 C 59.53125 130 64.457031 144.777344 67.265625 147.800781 C 70.054688 150.800781 81.925781 159.375 82.5 158.800781 C 82.722656 158.578125 81.179688 155.101562 79.042969 151 C 73.90625 141.148438 69.425781 128.199219 67.386719 117.300781 C 65.066406 104.898438 65.832031 78.761719 68.847656 67.5 C 71.417969 57.898438 75.90625 46.785156 80.636719 38.300781 C 84.707031 31 83.777344 30.292969 77 35.527344 "/>
<path style=" stroke:none;fill-rule:nonzero;fill:rgb(0%,0%,0%);fill-opacity:1;" d="M 150.199219 36.304688 C 143.101562 40.734375 133.84375 49.121094 130.339844 54.300781 C 128.785156 56.601562 127.273438 58.707031 127 58.957031 C 126.289062 59.605469 121.4375 69.898438 120.574219 72.601562 C 120.019531 74.324219 120.398438 74.816406 122.699219 75.351562 C 124.199219 75.699219 126.453125 76.253906 127.550781 76.550781 C 129.300781 77.019531 130.144531 76 133.308594 69.601562 C 137.265625 61.601562 147.378906 50 150.398438 50 C 151.300781 50 151.890625 49.496094 151.75 48.851562 C 151.613281 48.21875 154.550781 46.074219 158.25 44.101562 C 161.949219 42.128906 165.007812 40.230469 165.015625 39.898438 C 165.027344 39.339844 156.5 32.9375 155.800781 32.980469 C 155.636719 32.992188 153.101562 34.496094 150.199219 36.304688 "/>
<path style=" stroke:none;fill-rule:nonzero;fill:rgb(0%,0%,0%);fill-opacity:1;" d="M 164.699219 46.050781 C 154.5 50.195312 144.1875 59.414062 139.140625 68.898438 C 137.4375 72.101562 136 75.074219 136 75.398438 C 136 76.257812 140.101562 74.132812 154.5 65.816406 C 173.398438 54.902344 176 53.21875 176 51.898438 C 176 51.402344 174.539062 49.449219 172.75 47.550781 L 169.5 44.101562 L 164.699219 46.050781 "/>
<path style=" stroke:none;fill-rule:nonzero;fill:rgb(0%,0%,0%);fill-opacity:1;" d="M 51.078125 67 C 46.820312 76.925781 45.527344 83.898438 45.617188 96.5 C 45.6875 106.699219 46.101562 109.699219 48.367188 116.5 C 50.933594 124.199219 53.886719 130.53125 53.960938 128.5 C 53.984375 127.949219 53.351562 124.398438 52.554688 120.601562 C 49.292969 105 49.671875 81.351562 53.414062 67.199219 C 55.160156 60.601562 53.871094 60.488281 51.078125 67 "/>
<path style=" stroke:none;fill-rule:nonzero;fill:rgb(0%,0%,0%);fill-opacity:1;" d="M 103 112.300781 C 103 114.550781 107.835938 128.699219 110.175781 133.300781 C 112.890625 138.636719 117.410156 145.300781 122.320312 151.199219 C 126.894531 156.699219 137.167969 165 139.398438 165 C 141.601562 165 149 161.917969 149 161 C 149 160.613281 146.5 158.632812 143.398438 156.566406 C 132.324219 149.183594 121.804688 136.101562 116.96875 123.699219 C 114.707031 117.898438 113.679688 116.425781 111.351562 115.648438 C 109.75 115.117188 107.292969 113.867188 105.75 112.800781 C 103.550781 111.28125 103 111.179688 103 112.300781 "/>
<path style=" stroke:none;fill-rule:nonzero;fill:rgb(0%,0%,0%);fill-opacity:1;" d="M 124.550781 115.648438 C 122.351562 116.457031 120.46875 117.234375 120.300781 117.398438 C 120.132812 117.566406 122.078125 121.898438 124.648438 127.101562 C 128.359375 134.601562 130.847656 138.015625 136.949219 144 C 141.148438 148.117188 147.148438 153.011719 150.25 154.851562 L 155.898438 158.199219 L 160.449219 155.050781 C 162.949219 153.320312 165 151.675781 165 151.398438 C 165 151.121094 163.101562 150.082031 160.699219 149.046875 C 149.363281 144.160156 137.382812 132 132.28125 120.199219 C 130.8125 116.800781 129.351562 114.046875 129.050781 114.101562 C 128.742188 114.15625 126.75 114.84375 124.550781 115.648438 "/>
<path style=" stroke:none;fill-rule:nonzero;fill:rgb(0%,0%,0%);fill-opacity:1;" d="M 136.707031 117.699219 C 140.644531 128.300781 153.5 140.582031 165.601562 145.300781 L 169.699219 146.898438 L 172.851562 143.648438 C 174.59375 141.851562 176 139.953125 176 139.398438 C 176 138.453125 142.101562 118.117188 137.800781 116.484375 C 136.378906 115.945312 136.148438 116.199219 136.707031 117.699219 "/>
</g>
</svg>
