<?xml version="1.0" encoding="UTF-8"?>
<svg xmlns="http://www.w3.org/2000/svg" viewBox="0 0 206 200" width="206" height="200" aria-label="Stylized bird silhouette" role="img">
  <title>Stylized Bird</title>
  <desc>A minimalist vector silhouette of a bird with outstretched wings.</desc>
  <g fill="black" fill-rule="nonzero">
    <!-- Left wing and body -->
    <path d="M101,24.7 C97.4,25.5 93.7,26.9 92.8,27.8 
             C89.5,31.0 79.9,49.2 77.0,57.8 
             C65.5,91.5 70.5,130.3 90.1,159.2 
             C93.8,164.6 94.1,164.8 101.0,166.5 
             C104.9,167.4 108.3,168.0 108.6,167.8 
             C108.8,167.5 107.5,165.5 105.7,163.4 
             C78.6,131.7 73.4,84.5 93.0,47.7 
             C95.1,43.8 99.6,36.8 102.9,32.3 
             C106.2,27.8 109.0,23.8 109.0,23.5 
             C109.0,22.8 108.8,22.8 101.0,24.7 Z"/>

    <!-- Central body and chest -->
    <path d="M112.4,28.2 
             C94.9,46.8 84.8,74.6 86.3,100.4 
             C87.7,124.2 96.8,145.9 112.7,163.0 
             L118.3,169.1 L124.4,168.4 
             C127.8,168.0 130.7,167.6 130.9,167.4 
             C131.0,167.2 128.0,164.1 124.1,160.4 
             C111.7,148.8 102.6,133.3 99.0,117.6 
             C95.3,101.7 95.5,87.8 99.6,71.7 
             C103.2,57.7 112.8,42.1 124.6,31.0 
             C132.8,23.4 132.7,23.0 122.4,23.0 
             C117.5,23.0 117.1,23.2 112.4,28.2 Z"/>

    <!-- Upper left wing tip -->
    <path d="M133.0,29.6 
             C128.6,33.1 118.0,43.7 118.0,44.6 
             C118.0,44.9 117.2,46.3 116.2,47.8 
             C110.6,56.1 108.9,59.2 106.7,66.0 
             C105.3,70.1 103.9,75.2 103.5,77.3 
             L102.8,81.1 L106.6,78.5 
             C108.7,77.1 111.4,75.7 112.6,75.4 
             C113.8,75.0 115.1,73.8 115.4,72.5 
             C116.5,68.2 122.0,57.5 125.9,52.2 
             C130.9,45.3 138.4,38.3 144.9,34.5 
             C147.7,32.9 150.0,31.0 150.0,30.3 
             C150.0,29.1 142.0,26.0 139.1,26.0 
             C138.2,26.0 135.5,27.6 133.0,29.6 Z"/>

    <!-- Lower left wing -->
    <path d="M77.0,35.5 
             C74.5,37.5 71.1,40.0 69.4,41.2 
             C66.1,43.5 65.4,44.7 61.6,55.5 
             C55.9,71.4 54.1,99.3 57.5,118.5 
             C59.5,130.0 64.5,144.8 67.3,147.8 
             C70.1,150.8 81.9,159.4 82.5,158.8 
             C82.7,158.6 81.2,155.1 79.0,151.0 
             C73.9,141.1 69.4,128.2 67.4,117.3 
             C65.1,104.9 65.8,78.8 68.8,67.5 
             C71.4,57.9 75.9,46.8 80.6,38.3 
             C84.7,31.0 83.8,30.3 77.0,35.5 Z"/>

    <!-- Right wing upper -->
    <path d="M150.2,36.3 
             C143.1,40.7 133.8,49.1 130.3,54.3 
             C128.8,56.6 127.3,58.7 127.0,59.0 
             C126.3,59.6 121.4,69.9 120.6,72.6 
             C120.0,74.3 120.4,74.8 122.7,75.4 
             C124.2,75.7 126.5,76.3 127.6,76.6 
             C129.3,77.0 130.1,76.0 133.3,69.6 
             C137.3,61.6 147.4,50.0 150.4,50.0 
             C151.3,50.0 151.9,49.5 151.8,48.9 
             C151.6,48.2 154.6,46.1 158.3,44.1 
             C161.9,42.1 165.0,40.2 165.0,39.9 
             C165.0,39.3 156.5,32.9 155.8,33.0 
             C155.6,33.0 153.1,34.5 150.2,36.3 Z"/>

    <!-- Right wing mid -->
    <path d="M164.7,46.1 
             C154.5,50.2 144.2,59.4 139.1,68.9 
             C137.4,72.1 136.0,75.1 136.0,75.4 
             C136.0,76.3 140.1,74.1 154.5,65.8 
             C173.4,54.9 176.0,53.2 176.0,51.9 
             C176.0,51.4 174.5,49.4 172.8,47.6 
             L169.5,44.1 
             L164.7,46.1 Z"/>

    <!-- Lower left body detail -->
    <path d="M51.1,67.0 
             C46.8,76.9 45.5,83.9 45.6,96.5 
             C45.7,106.7 46.1,109.7 48.4,116.5 
             C50.9,124.2 53.9,130.5 54.0,128.5 
             C54.0,127.9 53.4,124.4 52.6,120.6 
             C49.3,105.0 49.7,81.4 53.4,67.2 
             C55.2,60.6 53.9,60.5 51.1,67.0 Z"/>

    <!-- Chest highlight left -->
    <path d="M103.0,112.3 
             C103.0,114.6 107.8,128.7 110.2,133.3 
             C112.9,138.6 117.4,145.3 122.3,151.2 
             C126.9,156.7 137.2,165.0 139.4,165.0 
             C141.6,165.0 149.0,161.9 149.0,161.0 
             C149.0,160.6 146.5,158.6 143.4,156.6 
             C132.3,149.2 121.8,136.1 117.0,123.7 
             C114.7,117.9 113.7,116.4 111.4,115.6 
             C109.8,115.1 107.3,113.9 105.8,112.8 
             C103.6,111.3 103.0,111.2 103.0,112.3 Z"/>

    <!-- Right wing inner -->
    <path d="M124.6,115.6 
             C122.4,116.5 120.5,117.2 120.3,117.4 
             C120.1,117.6 122.1,121.9 124.6,127.1 
             C128.4,134.6 130.8,138.0 136.9,144.0 
             C141.1,148.1 147.1,153.0 150.3,154.9 
             L155.9,158.2 
             L160.4,155.1 
             C162.9,153.3 165.0,151.7 165.0,151.4 
             C165.0,151.1 163.1,150.1 160.7,149.0 
             C149.4,144.2 137.4,132.0 132.3,120.2 
             C130.8,116.8 129.4,114.0 129.0,114.1 
             C128.7,114.2 126.8,114.8 124.6,115.6 Z"/>

    <!-- Tail or upper back -->
    <path d="M136.7,117.7 
             C140.6,128.3 153.5,140.6 165.6,145.3 
             L169.7,146.9 
             L172.9,143.6 
             C174.6,141.9 176.0,140.0 176.0,139.4 
             C176.0,138.5 142.1,118.1 137.8,116.5 
             C136.4,115.9 136.1,116.2 136.7,117.7 Z"/>
  </g>
</svg>